# xmcd
#
# Track frame offsets: 
#        150
#        1718
#        15292
#        31272
#        50696
#        73360
#        110909
#        137084
#        160731
#        184246
#        206911
#
# Disc length: 3150 seconds
#
# Revision: 0
# Processed by: cddbd v1.5.1PL2 Copyright (c) Steve Scherf et al.
# Submitted via: ExactAudioCopy v0.95b4
#
DISCID=970c4c0b
DTITLE=Jeff Gibble Group - 1999-12-12 - The Cove - York PA
DYEAR=1999
DGENRE=Progressive Rock
TTITLE0=Introduction
TTITLE1=Hexed
TTITLE2=The Royal Road
TTITLE3=Turnabout
TTITLE4=Tomorrow Never Knows
TTITLE5=Lifetime
TTITLE6=Bold As Love
TTITLE7=Winter Sun
TTITLE8=Steppin' Out
TTITLE9=Emerald
TTITLE10=More Joe, No Cow
EXTD=
EXTT0=
EXTT1=
EXTT2=
EXTT3=
EXTT4=
EXTT5=
EXTT6=
EXTT7=
EXTT8=
EXTT9=
EXTT10=
PLAYORDER=
